# xmcd CD database file
#
# Track frame offsets:
#	150
#	21298
#	40478
#	61069
#	82377
#	101042
#	119090
#	138674
#	159885
#	184060
#	203188
#	230250
#	255389
#	277293
#	301195
#
# Disc length: 4292 seconds
#
# Revision: 0
# Processed by: cddbd v1.5.1PL0 Copyright (c) Steve Scherf et al.
# Submitted via: CDex 1.51
#
DISCID=d910c20f
DTITLE=m3 - Synchronicity
DYEAR=1900
DGENRE=Soul
TTITLE0=01 オアシス feat. Diggy-MO'(SOUL'd OUT)
TTITLE1=02 サンライズ
TTITLE2=03 TREASURE
TTITLE3=04 Okay
TTITLE4=05 1 4 3 〜YUKI’s Room〜
TTITLE5=06 弁慶 and 牛若丸
TTITLE6=07 天狗 vs 弁慶 feat. シーモネーター
TTITLE7=08 Puppy Love feat. GIPPER(NORA)
TTITLE8=09 Lost Paradise feat. TSUYOSHI
TTITLE9=10 let go_01
TTITLE10=11 let go_01
TTITLE11=12 The Other Side of Love
TTITLE12=13 Ｃｏｍｅ　Ｂａｃｋ　Ｔｏ　Ｍｅ
TTITLE13=14 Pearl　Moon倖田
TTITLE14=15 Lost wing
EXTD=
EXTT0=
EXTT1=
EXTT2=
EXTT3=
EXTT4=
EXTT5=
EXTT6=
EXTT7=
EXTT8=
EXTT9=
EXTT10=
EXTT11=
EXTT12=
EXTT13=
EXTT14=
PLAYORDER=
